<?xml version="1.0" standalone="no"?>
<!DOCTYPE svg PUBLIC "-//W3C//DTD SVG 20010904//EN"
 "http://www.w3.org/TR/2001/REC-SVG-20010904/DTD/svg10.dtd">
<svg xmlns="http://www.w3.org/2000/svg"
 width="214.000000pt" height="79.000000pt" viewBox="0 0 214.000000 79.000000"
 preserveAspectRatio="xMidYMid meet">

<g transform="translate(0.000000,79.000000) scale(0.100000,-0.100000)"
fill="#fff" stroke="none">
<path d="M80 738 c0 -7 16 -61 36 -120 l36 -108 43 0 c36 0 45 4 51 22 l6 21
17 -22 c14 -18 25 -22 55 -19 l38 3 39 109 c21 60 36 113 33 118 -3 4 -21 8
-40 8 -32 0 -36 -4 -54 -46 -20 -46 -40 -51 -40 -10 0 34 -23 58 -51 54 -19
-2 -26 -11 -33 -45 -6 -24 -13 -43 -16 -43 -4 0 -15 19 -26 43 -17 37 -23 42
-56 45 -26 2 -38 -1 -38 -10z"/>
<path d="M457 744 c-4 -4 -7 -58 -7 -121 l0 -113 90 0 90 0 0 30 c0 29 -2 30
-45 30 -52 0 -61 17 -12 22 28 3 32 7 35 36 3 31 2 32 -32 32 -20 0 -36 5 -36
10 0 6 21 10 46 10 45 0 45 0 42 33 l-3 32 -80 3 c-45 1 -84 0 -88 -4z"/>
<path d="M663 736 c-4 -8 -7 -62 -5 -121 l3 -106 97 3 c95 3 97 4 110 31 11
23 11 32 -1 56 -12 24 -12 31 0 47 17 24 9 63 -19 87 -27 22 -172 25 -185 3z
m111 -62 c18 -7 12 -24 -10 -24 -8 0 -14 7 -14 15 0 17 2 18 24 9z m6 -89 c0
-8 -7 -15 -15 -15 -8 0 -15 7 -15 15 0 8 7 15 15 15 8 0 15 -7 15 -15z"/>
<path d="M1007 693 c-4 -3 -7 -37 -7 -75 0 -64 1 -68 23 -67 12 0 16 3 10 6
-16 6 -18 123 -3 123 6 0 10 5 10 10 0 11 -23 14 -33 3z"/>
<path d="M2018 678 c14 -14 16 -118 2 -118 -5 0 -10 -4 -10 -10 0 -5 9 -10 20
-10 18 0 20 7 20 75 0 71 -1 75 -22 75 -17 0 -19 -3 -10 -12z"/>
<path d="M1160 620 c0 -33 4 -60 10 -60 6 0 10 4 10 10 0 5 17 17 37 25 35 15
52 30 53 47 0 19 -35 38 -71 38 l-39 0 0 -60z m75 20 c0 -8 -10 -16 -22 -18
-18 -3 -23 2 -23 18 0 16 5 21 23 18 12 -2 22 -10 22 -18z"/>
<path d="M1386 623 c-28 -60 -27 -76 2 -50 23 21 41 21 64 0 10 -9 20 -14 23
-11 8 7 -43 118 -54 118 -5 0 -21 -25 -35 -57z"/>
<path d="M1592 623 c2 -34 8 -58 16 -61 6 -2 12 3 12 12 0 20 29 21 36 1 10
-25 32 -18 27 9 -3 13 0 27 6 30 18 11 13 44 -8 56 -11 5 -36 10 -56 10 l-36
0 3 -57z m74 25 c8 -12 -24 -40 -37 -32 -5 3 -9 14 -9 25 0 21 34 27 46 7z"/>
<path d="M1833 625 c-26 -52 -26 -82 -1 -57 7 7 21 12 33 12 12 0 26 -5 33
-12 23 -23 24 2 2 57 -12 30 -26 55 -31 55 -5 0 -21 -25 -36 -55z"/>
<path d="M421 442 c-6 -12 -11 -34 -11 -51 0 -33 6 -36 83 -47 26 -3 50 -10
53 -15 11 -19 -7 -26 -53 -18 -55 8 -67 0 -76 -48 -7 -38 4 -48 61 -58 27 -4
42 -12 42 -21 0 -12 -14 -14 -72 -12 l-72 3 -7 -35 c-5 -23 -4 -39 4 -47 16
-15 257 -57 268 -46 11 11 63 338 56 355 -3 9 -43 20 -115 32 -61 9 -119 20
-130 23 -14 3 -24 -2 -31 -15z"/>
<path d="M82 432 c-9 -7 -12 -51 -10 -188 l3 -179 130 0 130 0 3 40 c4 49 -15
65 -75 65 l-43 0 0 119 c0 66 -3 126 -6 135 -5 12 -20 16 -63 16 -31 0 -62 -4
-69 -8z"/>
<path d="M742 432 c-9 -7 -12 -51 -10 -188 l3 -179 64 -3 c45 -2 67 1 72 10
14 21 11 342 -3 356 -13 13 -106 16 -126 4z"/>
<path d="M1015 417 c-144 -69 -152 -242 -15 -324 53 -32 57 -33 167 -33 l113
0 0 104 0 104 -57 4 c-65 4 -81 -5 -85 -47 -4 -36 -28 -44 -63 -21 -55 36 -15
113 51 100 24 -4 37 1 72 31 23 20 42 43 42 51 0 21 -57 46 -119 51 -45 3 -66
-1 -106 -20z"/>
<path d="M1413 416 c-116 -55 -142 -212 -47 -296 96 -84 221 -78 301 13 61 69
65 153 12 225 -57 78 -172 103 -266 58z m135 -122 c31 -21 30 -69 -2 -89 -44
-29 -96 1 -96 54 0 21 35 51 60 51 9 0 26 -7 38 -16z"/>
<path d="M1794 430 c-37 -15 -54 -50 -54 -112 0 -46 5 -62 24 -85 21 -25 31
-28 100 -31 56 -3 76 -8 76 -18 0 -11 -17 -14 -72 -14 -40 0 -79 -4 -86 -9 -9
-5 -12 -24 -10 -52 l3 -44 115 -3 c100 -2 119 0 147 17 37 23 58 81 47 136 -7
37 -47 84 -73 86 -9 1 -40 3 -70 5 -59 4 -66 7 -56 23 3 6 40 11 85 11 76 0
80 1 86 24 3 13 4 35 2 47 -3 24 -5 24 -123 26 -66 1 -130 -2 -141 -7z"/>
</g>
</svg>
